{"title":"Dunkirk 2017 (1080p Bluray x265 HEVC 10bit AAC 5.1 Tigole) [UTR]","magnet":"magnet:?xt=urn:btih:f4a10453a78b6db7e703e65fb1ff456af691ceba&dn=Dunkirk+2017+%281080p+Bluray+x265+HEVC+10bit+AAC+5.1+Tigole%29+%5BUTR%5D&tr=udp%3A%2F%2Ftracker.leechers-paradise.org%3A6969&tr=udp%3A%2F%2Fzer0day.ch%3A1337&tr=udp%3A%2F%2Fopen.demonii.com%3A1337&tr=udp%3A%2F%2Ftracker.coppersurfer.tk%3A6969&tr=udp%3A%2F%2Fexodus.desync.com%3A6969","uploader":"UTRplus","categoryP":"video","categoryS":"hd___movies","size":"4199213412","seeders":"194","leechers":"71","description":"Dunkirk 2017 in 1080p, encoded with x265 in HEVC and AAC 5.1 English, with subtitles! \r\nEncoded using the time consuming 2 pass, 10 bit color at 4750 kbps, from a Blu-ray source, for the highest quality possible.\r\n\r\n\r\nMedia Information\r\nGeneral \r\nFormat : Matroska \r\nFormat version : Version 4 / Version 2 \r\nFile size : 3.91 GiB \r\nDuration : 1 h 46 min \r\n\r\nVideo \r\nID : 1 \r\nFormat : HEVC \r\nFormat/Info : High Efficiency Video Coding \r\nFormat profile : Main <a href=\"/cdn-cgi/l/email-protection\" class=\"__cf_email__\" data-cfemail=\"6e5f5e2e225a\">[email&#xA0;protected]</a>@Main \r\nCodec ID : V_MPEGH/ISO/HEVC \r\nDuration : 1 h 46 min \r\nBit rate : 4 749 kb/s \r\nWidth : 1 920 pixels \r\nHeight : 1 080 pixels \r\nDisplay aspect ratio : 16:9 \r\nFrame rate mode : Constant \r\nFrame rate : 23.976 (24000/1001) FPS \r\nBit depth : 10 bits \r\nStream size : 3.54 GiB (90%) \r\nForced : No \r\n\r\nAudio \r\nID : 2 \r\nFormat : AAC \r\nFormat/Info : Advanced Audio Codec \r\nFormat profile : LC \r\nCodec ID : A_AAC \r\nDuration : 1 h 46 min \r\nBit rate : 488 kb/s \r\nChannel(s) : 6 channels \r\nChannel positions : Front: L C R, Side: L R, LFE \r\nSampling rate : 48.0 kHz \r\nFrame rate : 46.875 FPS (1024 spf) \r\nStream size : 372 MiB (9%) \r\nLanguage : English \r\nDefault : Yes \r\nForced : No \r\n\r\nScreenshots <a href=\"\nhttps://postimg.org/image/sqc6ui16t/\" rel=\"nofollow\" target=\"_NEW\">\nhttps://postimg.org/image/sqc6ui16t/</a> <a href=\"\nhttps://postimg.org/image/f9f8bmyl1/\" rel=\"nofollow\" target=\"_NEW\">\nhttps://postimg.org/image/f9f8bmyl1/</a> <a href=\"\nhttps://postimg.org/image/6r5s7azs5/\" rel=\"nofollow\" target=\"_NEW\">\nhttps://postimg.org/image/6r5s7azs5/</a> <a href=\"\nhttps://postimg.org/image/gbpeu6wtx/\" rel=\"nofollow\" target=\"_NEW\">\nhttps://postimg.org/image/gbpeu6wtx/</a> <a href=\"\nhttps://postimg.org/image/fm6mhu405/\" rel=\"nofollow\" target=\"_NEW\">\nhttps://postimg.org/image/fm6mhu405/</a> <a href=\"\nhttps://postimg.org/image/9l8xkrp3p/\" rel=\"nofollow\" target=\"_NEW\">\nhttps://postimg.org/image/9l8xkrp3p/</a> <a href=\"\nhttps://postimg.org/image/61mzuyu3p/\" rel=\"nofollow\" target=\"_NEW\">\nhttps://postimg.org/image/61mzuyu3p/</a>","last_updated":"2017-12-16T12:02:24.187Z","parsed":{"xt":"urn:btih:f4a10453a78b6db7e703e65fb1ff456af691ceba","dn":"Dunkirk 2017 (1080p Bluray x265 HEVC 10bit AAC 5.1 Tigole) [UTR]","tr":["udp://exodus.desync.com:6969","udp://open.demonii.com:1337","udp://tracker.coppersurfer.tk:6969","udp://tracker.leechers-paradise.org:6969","udp://zer0day.ch:1337"],"infoHash":"f4a10453a78b6db7e703e65fb1ff456af691ceba","infoHashBuffer":{"type":"Buffer","data":[244,161,4,83,167,139,109,183,231,3,230,95,177,255,69,106,246,145,206,186]},"name":"Dunkirk 2017 (1080p Bluray x265 HEVC 10bit AAC 5.1 Tigole) [UTR]","announce":["udp://exodus.desync.com:6969","udp://open.demonii.com:1337","udp://tracker.coppersurfer.tk:6969","udp://tracker.leechers-paradise.org:6969","udp://zer0day.ch:1337"],"urlList":[]}}